<?xml version="1.0" encoding="UTF-8"?>
<svg id="Layer_2" xmlns="http://www.w3.org/2000/svg" viewBox="0 0 364.69 272.15">
  <defs>
    <style>
      .cls-1, .cls-2 {
        fill: #231f20;
      }

      .cls-2 {
        stroke: #231f20;
        stroke-miterlimit: 10;
        stroke-width: 5px;
      }
    </style>
  </defs>
  <g id="Layer_1-2" data-name="Layer_1">
    <path class="cls-1" d="M148.38,0v195.95L44.74,0H.15v252.53h28.32V31.86l103.04,195.6h45.49V0h-28.62Z"/>
    <path class="cls-1" d="M291.78,0h-85.56v233.5l15.53-6.04c2.77-3.63,5.81-7.43,9.12-11.35,2.17-2.57,4.39-5.18,6.68-7.8v-60.66h50.92c2.06,0,4.07-.04,6.05-.14,12.41-.55,23.24-2.85,32.44-6.84,1.43-.61,2.81-1.27,4.15-1.97.1-.04.2-.09.29-.14,21.88-11.46,33.29-33.57,33.29-65.25,0-49.33-24.4-73.31-72.91-73.31ZM284.55,118.53h-47V29.12h49.11c31.94,0,45.8,13.36,45.8,44.53s-14.77,44.88-47.91,44.88Z"/>
    <g>
      <polygon class="cls-2" points="171.16 249.96 2.53 249.96 2.65 241.27 156.57 241.27 171.16 249.96"/>
      <polygon class="cls-2" points="361.16 241.27 361.16 249.96 209.47 249.96 224.51 241.27 361.16 241.27"/>
      <path class="cls-2" d="M230.36,241.27v1.11c0,2.96-1.33,5.74-3.57,7.58-.42.35-.86.66-1.34.93l-30.22,17.45c-3.04,1.75-6.79,1.75-9.84,0l-30.21-17.45c-.48-.27-.93-.59-1.35-.93-2.24-1.85-3.57-4.62-3.57-7.58v-1.11h5.85l15.05,8.69,14.23,8.22c3.05,1.76,6.8,1.76,9.84,0l14.24-8.22,15.04-8.69h5.85Z"/>
    </g>
    <path class="cls-1" d="M338.95,122.6l-7.55,15.96h-.01c-.09.05-.19.1-.28.14-1.4.66-2.79,1.31-4.15,1.97-45.88,22.1-70.25,45.7-89.41,67.64-2.29,2.62-4.51,5.23-6.68,7.8-3.31,3.92-6.35,7.72-9.12,11.35-16.22,21.23-23.45,36.66-23.54,36.84l-7.9-4.15c.33-.69,6.45-13.81,20.19-32.69,3.9-5.37,8.41-11.2,13.58-17.34,3.95-4.69,8.43-9.73,13.47-14.99,14.36-15.01,33.22-31.85,56.97-47.62,13.26-8.81,28.05-17.28,44.43-24.91Z"/>
  </g>
</svg>